<?xml version="1.0" encoding="utf-8"?>
<!-- Generator: Adobe Illustrator 16.0.0, SVG Export Plug-In . SVG Version: 6.00 Build 0)  -->
<!DOCTYPE svg PUBLIC "-//W3C//DTD SVG 1.1//EN" "http://www.w3.org/Graphics/SVG/1.1/DTD/svg11.dtd">
<svg version="1.1" id="Layer_1" xmlns="http://www.w3.org/2000/svg" xmlns:xlink="http://www.w3.org/1999/xlink" x="0px" y="0px"
	 width="16px" height="32px" viewBox="0 0 16 32" enable-background="new 0 0 16 32" xml:space="preserve">
<g transform="translate(0, 0)">
	<path fill="#5B5B5B" d="M11.24,10.291c0.62-0.828,0.966-1.793,0.966-2.896c0-2.689-2.138-4.895-4.827-4.895
		c-2.688,0-4.895,2.206-4.895,4.895s2.207,4.895,4.895,4.895c1.104,0,2.138-0.344,2.895-0.965l2.068,2.068
		c0.139,0.138,0.345,0.207,0.483,0.207c0.138,0,0.345-0.069,0.483-0.207c0.275-0.276,0.275-0.689,0-0.965L11.24,10.291z
		 M7.379,10.842c-1.931,0-3.516-1.517-3.516-3.447c0-1.931,1.585-3.516,3.516-3.516c1.931,0,3.517,1.585,3.517,3.516
		C10.896,9.325,9.311,10.842,7.379,10.842z"/>
</g>
</svg>
