<?xml version="1.0" encoding="utf-8"?>
<!-- Generator: Adobe Illustrator 16.0.0, SVG Export Plug-In . SVG Version: 6.00 Build 0)  -->
<!DOCTYPE svg PUBLIC "-//W3C//DTD SVG 1.1//EN" "http://www.w3.org/Graphics/SVG/1.1/DTD/svg11.dtd">
<svg version="1.1" id="Layer_1" xmlns="http://www.w3.org/2000/svg" xmlns:xlink="http://www.w3.org/1999/xlink" x="0px" y="0px"
	 width="15.809px" height="20px" viewBox="0 0 15.809 20" enable-background="new 0 0 15.809 20" xml:space="preserve">
<g>
	<path fill="#FFFFFF" d="M14.444,2.354h-2.67V0.62c0-0.35-0.281-0.62-0.631-0.62c-0.034,0-0.057,0.012-0.067,0.022
		C11.064,0.012,11.042,0,11.03,0H4.664c-0.349,0-0.62,0.27-0.62,0.62v1.735H1.364C0.597,2.354,0,2.952,0,3.718V5.95h1.183v12.698
		C1.183,19.414,1.769,20,2.535,20h10.738c0.767,0,1.362-0.586,1.362-1.353V5.95h1.173V3.718C15.809,2.952,15.211,2.354,14.444,2.354
		L14.444,2.354z M5.284,1.239h5.239v1.115H5.284V1.239z M13.386,18.647c0,0.079-0.034,0.113-0.112,0.113H2.535
		c-0.079,0-0.113-0.034-0.113-0.113V5.95h10.963V18.647z M14.558,4.71H1.251V3.718c0-0.079,0.033-0.125,0.113-0.125h13.081
		c0.079,0,0.113,0.046,0.113,0.125V4.71z M14.558,4.71"/>
	<rect x="10.175" y="7.402" fill="#FFFFFF" width="1.25" height="10.254"/>
	<rect x="7.29" y="7.402" fill="#FFFFFF" width="1.251" height="10.254"/>
	<rect x="4.406" y="7.402" fill="#FFFFFF" width="1.25" height="10.254"/>
</g>
</svg>
