<?xml version="1.0" encoding="utf-8"?>
<!-- Generator: Adobe Illustrator 16.0.0, SVG Export Plug-In . SVG Version: 6.00 Build 0)  -->
<!DOCTYPE svg PUBLIC "-//W3C//DTD SVG 1.1//EN" "http://www.w3.org/Graphics/SVG/1.1/DTD/svg11.dtd">
<svg version="1.1" id="Layer_1" xmlns="http://www.w3.org/2000/svg" xmlns:xlink="http://www.w3.org/1999/xlink" x="0px" y="0px"
	 width="12px" height="12px" viewBox="0 0 12 12" enable-background="new 0 0 12 12" xml:space="preserve">
<g>
	<path fill="#666766" d="M11.969,5.848l-0.086-0.129l-1.602-1.602c-0.152-0.156-0.41-0.156-0.563,0c-0.156,0.156-0.156,0.41,0,0.567
		l0.914,0.918H6.398V1.367l0.918,0.914c0.156,0.157,0.41,0.157,0.566,0c0.156-0.156,0.156-0.41,0-0.562L6.277,0.113L6.152,0.031L6,0
		L5.848,0.031L5.723,0.113L4.117,1.719c-0.156,0.152-0.156,0.406,0,0.562c0.156,0.157,0.41,0.157,0.567,0l0.918-0.914v4.235H1.367
		l0.914-0.918c0.157-0.157,0.157-0.411,0-0.567c-0.156-0.156-0.41-0.156-0.562,0L0.113,5.723L0.031,5.848L0,6l0.031,0.152
		l0.082,0.125l1.606,1.605c0.152,0.156,0.406,0.156,0.562,0c0.157-0.155,0.157-0.409,0-0.566L1.367,6.398h4.235v4.234L4.684,9.719
		c-0.157-0.156-0.411-0.156-0.567,0c-0.156,0.156-0.156,0.41,0,0.563l1.602,1.602l0.129,0.086L6,12l0.152-0.031l0.129-0.086
		l1.602-1.602c0.156-0.152,0.156-0.41,0-0.563c-0.156-0.156-0.41-0.156-0.566,0l-0.918,0.914V6.398h4.235L9.719,7.316
		c-0.156,0.157-0.156,0.411,0,0.566c0.156,0.156,0.41,0.156,0.563,0l1.602-1.602l0.086-0.129L12,6L11.969,5.848z M11.969,5.848"/>
</g>
</svg>
