<?xml version="1.0" encoding="utf-8"?>
<!-- Generator: Adobe Illustrator 16.0.0, SVG Export Plug-In . SVG Version: 6.00 Build 0)  -->
<!DOCTYPE svg PUBLIC "-//W3C//DTD SVG 1.1//EN" "http://www.w3.org/Graphics/SVG/1.1/DTD/svg11.dtd">
<svg version="1.1" id="Layer_1" xmlns="http://www.w3.org/2000/svg" xmlns:xlink="http://www.w3.org/1999/xlink" x="0px" y="0px"
	 width="20px" height="20.637px" viewBox="0 0 20 20.637" enable-background="new 0 0 20 20.637" xml:space="preserve">
<g>
	<g>
		<path fill="#666766" d="M19.186,20.608c-0.213,0-0.418-0.088-0.576-0.246l-5.834-5.834c-1.385,1.012-3.021,1.546-4.739,1.546
			C3.605,16.074,0,12.469,0,8.037S3.605,0,8.037,0c4.431,0,8.037,3.605,8.037,8.037c0,1.986-0.736,3.894-2.077,5.381l5.768,5.778
			c0.314,0.329,0.314,0.851,0,1.166C19.624,20.515,19.407,20.608,19.186,20.608z M8.037,1.647c-3.524,0-6.391,2.867-6.391,6.39
			s2.867,6.391,6.391,6.391s6.39-2.867,6.39-6.391S11.561,1.647,8.037,1.647z"/>
		<path fill="#666766" d="M8.037,15.969c1.783,0,3.421-0.586,4.75-1.579l5.897,5.897c0.144,0.144,0.323,0.216,0.502,0.216
			c0.18,0,0.371-0.072,0.503-0.216c0.275-0.275,0.275-0.729,0-1.017l-5.838-5.85c1.304-1.412,2.117-3.302,2.117-5.384
			c0-4.366-3.553-7.931-7.931-7.931S0.105,3.671,0.105,8.037S3.659,15.969,8.037,15.969L8.037,15.969z M8.037,1.542
			c3.577,0,6.496,2.907,6.496,6.496s-2.906,6.496-6.496,6.496c-3.577,0-6.496-2.907-6.496-6.496S4.448,1.542,8.037,1.542
			L8.037,1.542z M8.037,1.542"/>
		<rect fill="none" width="19.997" height="20.637"/>
	</g>
	<path fill="#666766" d="M8.109,11.827c-0.454,0-0.823-0.369-0.823-0.823V8.836H5.118c-0.454,0-0.823-0.369-0.823-0.823
		c0-0.454,0.369-0.824,0.823-0.824h2.167V5.022c0-0.454,0.369-0.823,0.823-0.823s0.823,0.369,0.823,0.823V7.19h2.167
		c0.454,0,0.824,0.37,0.824,0.824c0,0.454-0.37,0.823-0.824,0.823H8.932v2.167C8.932,11.458,8.563,11.827,8.109,11.827z"/>
	<path fill="#666766" d="M5.118,8.731h2.273v2.273c0,0.395,0.323,0.718,0.718,0.718c0.395,0,0.718-0.323,0.718-0.718V8.731h2.272
		c0.396,0,0.718-0.323,0.718-0.717c0-0.395-0.322-0.718-0.718-0.718H8.827V5.022c0-0.395-0.323-0.718-0.718-0.718
		c-0.395,0-0.718,0.323-0.718,0.718v2.273H5.118C4.723,7.295,4.4,7.619,4.4,8.014C4.4,8.408,4.723,8.731,5.118,8.731L5.118,8.731z
		 M5.118,8.731"/>
</g>
</svg>
