<?xml version="1.0" encoding="utf-8"?>
<!-- Generator: Adobe Illustrator 16.0.0, SVG Export Plug-In . SVG Version: 6.00 Build 0)  -->
<!DOCTYPE svg PUBLIC "-//W3C//DTD SVG 1.1//EN" "http://www.w3.org/Graphics/SVG/1.1/DTD/svg11.dtd">
<svg version="1.1" id="Layer_1" xmlns="http://www.w3.org/2000/svg" xmlns:xlink="http://www.w3.org/1999/xlink" x="0px" y="0px"
	 width="18.728px" height="20px" viewBox="0 0 18.728 20" enable-background="new 0 0 18.728 20" xml:space="preserve">
<g>
	<g>
		<g>
			<path fill="#666766" d="M9.345,20c0.41,0,0.824-0.027,1.233-0.081c2.479-0.324,4.685-1.595,6.209-3.578
				c1.484-1.932,2.152-4.329,1.881-6.749c-0.045-0.393-0.375-0.689-0.77-0.689c-0.029,0-0.059,0.001-0.088,0.005
				c-0.207,0.023-0.391,0.125-0.521,0.287s-0.188,0.365-0.165,0.571c0.227,2.019-0.33,4.018-1.568,5.629
				c-1.271,1.654-3.111,2.714-5.18,2.985c-0.341,0.045-0.688,0.067-1.029,0.067c-1.726,0-3.365-0.56-4.744-1.619
				c-0.475-0.365-0.906-0.782-1.283-1.24c-0.923-1.122-1.511-2.483-1.701-3.939C1.349,9.581,1.9,7.53,3.17,5.876
				c1.272-1.654,3.111-2.715,5.18-2.985c0.341-0.044,0.687-0.067,1.027-0.067c1.62,0,3.177,0.499,4.505,1.443l-0.718,0.718
				c-0.105,0.105-0.146,0.212-0.114,0.301c0.033,0.089,0.133,0.145,0.281,0.158l2.55,0.23c0.017,0.001,0.032,0.002,0.049,0.002
				c0.134,0,0.253-0.051,0.337-0.143c0.086-0.094,0.127-0.222,0.113-0.359l-0.232-2.55c-0.018-0.182-0.1-0.291-0.221-0.291
				c-0.074,0-0.157,0.043-0.238,0.125l-0.696,0.697c-1.637-1.232-3.577-1.884-5.611-1.884c-0.409,0-0.824,0.027-1.233,0.081
				C5.669,1.677,3.464,2.948,1.94,4.931c-1.523,1.983-2.184,4.44-1.859,6.92c0.229,1.746,0.934,3.378,2.039,4.722
				c0.452,0.549,0.97,1.049,1.539,1.486C5.311,19.329,7.278,20,9.345,20L9.345,20z"/>
		</g>
		<g>
			<path fill="#666766" d="M1.96,4.946c-1.52,1.978-2.179,4.429-1.855,6.902c0.23,1.756,0.936,3.375,2.034,4.709
				c0.448,0.545,0.962,1.042,1.535,1.482c1.978,1.52,4.429,2.179,6.9,1.855c2.474-0.324,4.673-1.591,6.193-3.568
				c1.48-1.927,2.146-4.317,1.875-6.73c-0.046-0.412-0.418-0.709-0.83-0.663c-0.412,0.046-0.709,0.418-0.662,0.83
				c0.227,2.025-0.332,4.031-1.574,5.648c-1.275,1.659-3.121,2.723-5.196,2.994c-2.076,0.272-4.132-0.281-5.792-1.557
				c-0.481-0.37-0.912-0.787-1.288-1.244c-0.922-1.12-1.514-2.478-1.707-3.952C1.323,9.577,1.875,7.521,3.151,5.861
				c1.275-1.66,3.121-2.724,5.197-2.995c1.985-0.26,3.954,0.237,5.574,1.398l-0.737,0.739c-0.203,0.203-0.136,0.391,0.15,0.417
				l2.55,0.23c0.286,0.025,0.499-0.188,0.473-0.473l-0.233-2.55c-0.026-0.286-0.213-0.354-0.416-0.15l-0.711,0.712
				c-1.969-1.488-4.395-2.132-6.844-1.812C5.679,1.701,3.48,2.968,1.96,4.946L1.96,4.946z M1.96,4.946"/>
		</g>
	</g>
</g>
<g>
	<polygon fill="#666766" points="16.479,6.267 15.741,3.51 15.002,0.753 12.985,2.771 10.966,4.79 13.723,5.528 	"/>
	<path fill="#666766" d="M16.285,6.995l-5.514-1.478c-0.26-0.07-0.463-0.273-0.533-0.533c-0.07-0.26,0.005-0.538,0.195-0.728
		l4.036-4.036c0.19-0.19,0.468-0.265,0.729-0.195c0.26,0.07,0.463,0.272,0.532,0.533l1.478,5.514
		c0.069,0.26-0.005,0.537-0.195,0.728c-0.143,0.143-0.336,0.221-0.533,0.221C16.415,7.021,16.349,7.012,16.285,6.995z M12.422,4.4
		l2.992,0.802l-0.803-2.993L12.422,4.4z"/>
</g>
</svg>
